<svg width="1131" height="414" viewBox="0 0 1131 414" fill="none" xmlns="http://www.w3.org/2000/svg">
<g clip-path="url(#clip0)">
<rect width="1131" height="414" fill="#F2F2F4"/>
<path d="M251.7 258L276.5 290.2L301.2 258H307.1L279.3 294L306.3 329H300.4L276.5 297.8L252.5 329H246.5L273.5 294L245.7 258H251.7ZM446.093 329V258H475.593C479.593 258 483.16 259.1 486.293 261.3C489.426 263.433 491.86 266.2 493.593 269.6C495.393 272.933 496.293 276.4 496.293 280C496.293 283.533 495.593 286.833 494.193 289.9C492.793 292.967 490.826 295.533 488.293 297.6C485.826 299.667 482.926 300.933 479.593 301.4L497.293 329H491.393L474.193 302.2H451.193V329H446.093ZM451.193 297.5H476.093C479.16 297.5 481.826 296.667 484.093 295C486.36 293.333 488.093 291.167 489.293 288.5C490.56 285.833 491.193 283 491.193 280C491.193 276.933 490.46 274.1 488.993 271.5C487.593 268.833 485.693 266.7 483.293 265.1C480.893 263.433 478.26 262.6 475.393 262.6H451.193V297.5ZM661.748 258H666.148L696.148 329H690.748L680.848 305.6H646.948L637.048 329H631.548L661.748 258ZM679.448 301.4L663.948 264.2L648.148 301.4H679.448ZM826.023 258L850.823 297.3L875.723 258H881.423L853.423 302.2V329H848.323V302L820.423 258H826.023Z" fill="#F04D4E"/>
<path d="M280.453 133.631L301.144 186.75H259.883L280.453 133.631ZM313.486 217H315.543L281.542 131.09H279.485L245.484 217H247.541L259.036 188.565H301.87L313.486 217ZM333.196 215.185C333.196 188.928 333.196 160.493 333.196 134.236H359.937C413.056 134.236 413.056 215.185 359.937 215.185H333.196ZM331.381 132.421C331.381 160.614 331.381 188.807 331.381 217H359.937C415.476 217 415.476 132.421 359.937 132.421H331.381ZM446.106 215.911L413.194 132.421H411.137L445.138 218.331H447.195L481.196 132.421H479.139L446.106 215.911ZM518.053 133.631L538.744 186.75H497.483L518.053 133.631ZM551.086 217H553.143L519.142 131.09H517.085L483.084 217H485.141L496.636 188.565H539.47L551.086 217ZM571.037 217V136.172L626.939 217H628.875V132.3H627.06V213.612L570.795 132.3L569.101 132.179V217H571.037ZM726.872 158.194C724.815 153.233 721.79 148.756 718.16 145.005C710.658 137.261 700.373 132.542 688.878 132.542C677.383 132.542 667.098 137.261 659.596 145.005C652.215 152.628 647.496 163.155 647.496 174.771C647.496 186.508 652.215 197.035 659.596 204.658C667.098 212.402 677.383 217.121 688.878 217.121C700.373 217.121 710.658 212.402 718.16 204.658C721.79 200.907 724.815 196.43 726.872 191.469H724.815C722.879 195.946 720.096 199.818 716.829 203.206C709.69 210.587 699.768 215.185 688.878 215.185C677.988 215.185 668.066 210.587 660.927 203.206C653.788 195.946 649.311 185.903 649.311 174.771C649.311 163.76 653.788 153.717 660.927 146.336C668.066 138.955 677.988 134.478 688.878 134.478C699.768 134.478 709.69 138.955 716.829 146.336C720.096 149.724 722.879 153.717 724.815 158.194H726.872ZM747.437 175.618H791.239V173.682H747.437V134.236H792.207V132.421H745.501V217H745.743H792.449V215.185H747.437V175.618ZM812.649 215.185C812.649 188.928 812.649 160.493 812.649 134.236H839.39C892.509 134.236 892.509 215.185 839.39 215.185H812.649ZM810.834 132.421C810.834 160.614 810.834 188.807 810.834 217H839.39C894.929 217 894.929 132.421 839.39 132.421H810.834Z" fill="black"/>
<g filter="url(#filter0_d)">
<rect x="358" y="61" width="414" height="47" rx="5" fill="#4DF0A2"/>
<path d="M374.22 95V73.7H388.53V77.33H378.36V82.82H386.82V86.18H378.36V95H374.22ZM407.413 73.7H411.613L419.443 95H415.183L413.203 89.69H405.763L403.813 95H399.553L407.413 73.7ZM412.453 86.78L409.513 77.99L406.453 86.78H412.453ZM450.639 89.51C450.639 90.71 450.329 91.72 449.709 92.54C449.089 93.34 448.249 93.95 447.189 94.37C446.149 94.79 445.009 95 443.769 95H433.479V73.7H444.879C445.879 73.7 446.739 73.97 447.459 74.51C448.179 75.03 448.739 75.71 449.139 76.55C449.539 77.39 449.739 78.25 449.739 79.13C449.739 80.17 449.479 81.15 448.959 82.07C448.439 82.97 447.679 83.64 446.679 84.08C447.899 84.44 448.859 85.09 449.559 86.03C450.279 86.97 450.639 88.13 450.639 89.51ZM437.619 77.24V82.61H443.139C443.819 82.61 444.409 82.37 444.909 81.89C445.409 81.41 445.659 80.75 445.659 79.91C445.659 79.11 445.429 78.47 444.969 77.99C444.529 77.49 443.979 77.24 443.319 77.24H437.619ZM446.469 88.73C446.469 87.95 446.229 87.28 445.749 86.72C445.269 86.16 444.679 85.88 443.979 85.88H437.619V91.49H443.769C444.529 91.49 445.169 91.22 445.689 90.68C446.209 90.14 446.469 89.49 446.469 88.73ZM465.57 95V73.7H474.99C475.97 73.7 476.87 73.9 477.69 74.3C478.53 74.7 479.25 75.24 479.85 75.92C480.47 76.6 480.94 77.36 481.26 78.2C481.6 79.04 481.77 79.9 481.77 80.78C481.77 82.14 481.42 83.39 480.72 84.53C480.04 85.67 479.11 86.49 477.93 86.99L482.79 95H478.23L473.85 87.86H469.71V95H465.57ZM469.71 84.23H474.9C475.68 84.23 476.32 83.9 476.82 83.24C477.34 82.56 477.6 81.74 477.6 80.78C477.6 80.12 477.46 79.53 477.18 79.01C476.9 78.49 476.54 78.08 476.1 77.78C475.68 77.48 475.22 77.33 474.72 77.33H469.71V84.23ZM497.221 95V73.7H501.361V95H497.221ZM516.215 84.2C516.215 82.9 516.445 81.62 516.905 80.36C517.385 79.1 518.075 77.96 518.975 76.94C519.875 75.92 520.975 75.11 522.275 74.51C523.575 73.89 525.055 73.58 526.715 73.58C528.655 73.58 530.345 74.01 531.785 74.87C533.225 75.73 534.295 76.85 534.995 78.23L531.815 80.42C531.455 79.62 530.985 78.99 530.405 78.53C529.825 78.07 529.195 77.74 528.515 77.54C527.855 77.34 527.215 77.24 526.595 77.24C525.555 77.24 524.645 77.45 523.865 77.87C523.105 78.29 522.465 78.84 521.945 79.52C521.425 80.2 521.035 80.96 520.775 81.8C520.535 82.64 520.415 83.48 520.415 84.32C520.415 85.58 520.675 86.76 521.195 87.86C521.715 88.94 522.445 89.82 523.385 90.5C524.325 91.18 525.415 91.52 526.655 91.52C527.295 91.52 527.955 91.41 528.635 91.19C529.335 90.97 529.975 90.62 530.555 90.14C531.135 89.66 531.585 89.04 531.905 88.28L535.295 90.23C534.855 91.29 534.165 92.19 533.225 92.93C532.285 93.65 531.225 94.21 530.045 94.61C528.865 94.99 527.695 95.18 526.535 95.18C525.015 95.18 523.625 94.87 522.365 94.25C521.125 93.61 520.045 92.77 519.125 91.73C518.205 90.67 517.485 89.49 516.965 88.19C516.465 86.87 516.215 85.54 516.215 84.2ZM583.469 91.37V95H568.679V73.7H583.199V77.33H572.819V82.46H581.789V85.82H572.819V91.37H583.469ZM598.396 95V73.7H606.136C608.456 73.7 610.396 74.18 611.956 75.14C613.516 76.08 614.686 77.36 615.466 78.98C616.246 80.58 616.636 82.36 616.636 84.32C616.636 86.48 616.206 88.36 615.346 89.96C614.486 91.56 613.266 92.8 611.686 93.68C610.106 94.56 608.256 95 606.136 95H598.396ZM612.466 84.32C612.466 82.94 612.216 81.73 611.716 80.69C611.216 79.63 610.496 78.81 609.556 78.23C608.616 77.63 607.476 77.33 606.136 77.33H602.536V91.37H606.136C607.496 91.37 608.646 91.07 609.586 90.47C610.526 89.85 611.236 89.01 611.716 87.95C612.216 86.87 612.466 85.66 612.466 84.32ZM631.571 95V73.7H635.711V95H631.571ZM667.785 77.33H660.975V95H656.865V77.33H650.055V73.7H667.785V77.33ZM682.129 95V73.7H686.269V95H682.129ZM711.503 95.15C709.943 95.15 708.523 94.85 707.243 94.25C705.983 93.65 704.893 92.84 703.973 91.82C703.073 90.78 702.373 89.62 701.873 88.34C701.373 87.04 701.123 85.71 701.123 84.35C701.123 82.93 701.383 81.58 701.903 80.3C702.423 79 703.153 77.85 704.093 76.85C705.033 75.83 706.133 75.03 707.393 74.45C708.673 73.85 710.073 73.55 711.593 73.55C713.133 73.55 714.533 73.86 715.793 74.48C717.073 75.1 718.163 75.93 719.063 76.97C719.983 78.01 720.683 79.18 721.163 80.48C721.663 81.76 721.913 83.07 721.913 84.41C721.913 85.81 721.653 87.16 721.133 88.46C720.613 89.74 719.883 90.89 718.943 91.91C718.023 92.91 716.923 93.7 715.643 94.28C714.383 94.86 713.003 95.15 711.503 95.15ZM705.323 84.35C705.323 85.59 705.563 86.75 706.043 87.83C706.543 88.91 707.253 89.79 708.173 90.47C709.113 91.15 710.233 91.49 711.533 91.49C712.873 91.49 714.003 91.14 714.923 90.44C715.843 89.74 716.543 88.84 717.023 87.74C717.503 86.64 717.743 85.51 717.743 84.35C717.743 83.11 717.493 81.95 716.993 80.87C716.493 79.79 715.773 78.92 714.833 78.26C713.913 77.58 712.813 77.24 711.533 77.24C710.193 77.24 709.063 77.59 708.143 78.29C707.223 78.99 706.523 79.89 706.043 80.99C705.563 82.07 705.323 83.19 705.323 84.35ZM740.929 81.32V95H736.789V73.7H740.089L751.099 87.74V73.73H755.239V95H751.789L740.929 81.32Z" fill="#132F21"/>
</g>
<rect x="958" y="149.344" width="86.1224" height="86.1224" rx="15" transform="rotate(-45 958 149.344)" stroke="#4DF0A2" stroke-width="4"/>
<rect x="1034" y="220.257" width="89.9866" height="89.9866" rx="15" transform="rotate(-36.4083 1034 220.257)" stroke="#F9EA4E" stroke-width="4"/>
<rect x="971.534" y="289.117" width="58.9647" height="60.5322" rx="15" transform="rotate(-71.6842 971.534 289.117)" stroke="#EF4E50" stroke-width="4"/>
<rect x="1102.19" y="345.493" width="51.3199" height="51.3199" rx="15" transform="rotate(-71.6842 1102.19 345.493)" stroke="#925EA6" stroke-width="4"/>
<rect x="953.641" y="422.272" width="121.528" height="121.528" rx="15" transform="rotate(-56.4881 953.641 422.272)" stroke="#4DF0A2" stroke-width="4"/>
<rect x="997.091" y="-2.19429" width="59.6899" height="59.6899" rx="15" transform="rotate(-31.0708 997.091 -2.19429)" stroke="#935FA9" stroke-width="4"/>
<rect x="1055.99" y="80.9304" width="112.555" height="112.555" rx="15" transform="rotate(-45 1055.99 80.9304)" stroke="#F14E51" stroke-width="4"/>
<rect width="86.1224" height="86.1224" rx="15" transform="matrix(-0.707107 -0.707107 -0.707107 0.707107 171.169 149.344)" stroke="#4DF0A2" stroke-width="4"/>
<rect width="89.9866" height="89.9866" rx="15" transform="matrix(-0.804807 -0.593536 -0.593536 0.804807 95.1688 220.257)" stroke="#F9EA4E" stroke-width="4"/>
<rect width="58.9647" height="60.5322" rx="15" transform="matrix(-0.314255 -0.949339 -0.949339 0.314255 157.634 289.117)" stroke="#EF4E50" stroke-width="4"/>
<rect width="51.32" height="51.32" rx="15" transform="matrix(-0.314255 -0.949339 -0.949339 0.314255 26.9834 345.493)" stroke="#925EA6" stroke-width="4"/>
<rect width="121.528" height="121.528" rx="15" transform="matrix(-0.55211 -0.833772 -0.833772 0.55211 175.528 422.272)" stroke="#4DF0A2" stroke-width="4"/>
<rect width="59.6899" height="59.6899" rx="15" transform="matrix(-0.856531 -0.516096 -0.516096 0.856531 132.078 -2.19429)" stroke="#935FA9" stroke-width="4"/>
<rect width="112.555" height="112.555" rx="15" transform="matrix(-0.707107 -0.707107 -0.707107 0.707107 73.1774 80.9304)" stroke="#F14E51" stroke-width="4"/>
</g>
<defs>
<filter id="filter0_d" x="334" y="40" width="462" height="95" filterUnits="userSpaceOnUse" color-interpolation-filters="sRGB">
<feFlood flood-opacity="0" result="BackgroundImageFix"/>
<feColorMatrix in="SourceAlpha" type="matrix" values="0 0 0 0 0 0 0 0 0 0 0 0 0 0 0 0 0 0 127 0"/>
<feOffset dy="3"/>
<feGaussianBlur stdDeviation="12"/>
<feColorMatrix type="matrix" values="0 0 0 0 0.301961 0 0 0 0 0.941176 0 0 0 0 0.635294 0 0 0 0.5 0"/>
<feBlend mode="normal" in2="BackgroundImageFix" result="effect1_dropShadow"/>
<feBlend mode="normal" in="SourceGraphic" in2="effect1_dropShadow" result="shape"/>
</filter>
<clipPath id="clip0">
<rect width="1131" height="414" fill="white"/>
</clipPath>
</defs>
</svg>
